<svg xmlns="http://www.w3.org/2000/svg" width="1800" height="1200" viewBox="0 0 1800 1200">
  <defs>
    <linearGradient id="sky" x1="0" x2="1" y1="0" y2="1">
      <stop offset="0" stop-color="#07111f"/>
      <stop offset="0.48" stop-color="#0b1f35"/>
      <stop offset="1" stop-color="#030712"/>
    </linearGradient>
    <radialGradient id="lamp" cx="50%" cy="50%" r="50%">
      <stop offset="0" stop-color="#38bdf8" stop-opacity=".75"/>
      <stop offset=".48" stop-color="#38bdf8" stop-opacity=".22"/>
      <stop offset="1" stop-color="#38bdf8" stop-opacity="0"/>
    </radialGradient>
    <radialGradient id="redLamp" cx="50%" cy="50%" r="50%">
      <stop offset="0" stop-color="#fb7185" stop-opacity=".9"/>
      <stop offset=".5" stop-color="#fb7185" stop-opacity=".24"/>
      <stop offset="1" stop-color="#fb7185" stop-opacity="0"/>
    </radialGradient>
    <filter id="blur">
      <feGaussianBlur stdDeviation="8"/>
    </filter>
  </defs>

  <rect width="1800" height="1200" fill="url(#sky)"/>
  <circle cx="295" cy="230" r="250" fill="url(#lamp)"/>
  <circle cx="1480" cy="270" r="210" fill="url(#redLamp)"/>

  <g opacity=".26">
    <rect x="96" y="255" width="145" height="545" rx="9" fill="#16243a"/>
    <rect x="285" y="180" width="180" height="620" rx="12" fill="#111d31"/>
    <rect x="520" y="320" width="120" height="480" rx="9" fill="#16243a"/>
    <rect x="1300" y="230" width="160" height="570" rx="11" fill="#122039"/>
    <rect x="1505" y="300" width="105" height="500" rx="10" fill="#18263d"/>
    <rect x="1645" y="190" width="120" height="610" rx="12" fill="#101a2c"/>
  </g>

  <g opacity=".20">
    <path d="M0 850 C260 790 435 900 670 840 C940 770 1170 900 1440 825 C1625 775 1710 805 1800 770 L1800 1200 L0 1200Z" fill="#0b1220"/>
    <path d="M0 935 C320 870 560 960 820 915 C1115 860 1395 970 1800 895 L1800 1200 L0 1200Z" fill="#020617"/>
  </g>

  <g transform="translate(335 650)">
    <ellipse cx="540" cy="305" rx="640" ry="68" fill="#000" opacity=".42" filter="url(#blur)"/>
    <path d="M85 165 L235 65 C270 43 315 30 360 30 L708 30 C772 30 832 59 870 109 L970 239 L1070 250 C1125 255 1168 302 1168 358 L1168 430 L52 430 L52 245 C52 212 64 184 85 165Z" fill="#e9f2ff"/>
    <path d="M52 330 L1168 330 L1168 430 L52 430Z" fill="#152033"/>
    <path d="M244 88 L360 58 L512 58 L512 211 L134 211Z" fill="#76d7ff" opacity=".88"/>
    <path d="M548 58 L702 58 C748 58 790 80 816 117 L879 211 L548 211Z" fill="#76d7ff" opacity=".88"/>
    <path d="M80 255 L970 255" stroke="#ef4444" stroke-width="46" stroke-linecap="round"/>
    <path d="M618 235 L618 298 M586 266 L650 266" stroke="#fff" stroke-width="20" stroke-linecap="round"/>
    <rect x="458" y="-4" width="230" height="42" rx="18" fill="#0f172a"/>
    <rect x="490" y="-26" width="58" height="34" rx="12" fill="#ef4444"/>
    <rect x="600" y="-26" width="58" height="34" rx="12" fill="#38bdf8"/>
    <circle cx="254" cy="430" r="86" fill="#090d16"/>
    <circle cx="254" cy="430" r="43" fill="#64748b"/>
    <circle cx="910" cy="430" r="86" fill="#090d16"/>
    <circle cx="910" cy="430" r="43" fill="#64748b"/>
    <path d="M1015 254 C1110 260 1195 305 1258 355" stroke="#38bdf8" stroke-width="12" opacity=".5" fill="none"/>
    <path d="M1010 220 C1138 226 1242 290 1312 374" stroke="#ef4444" stroke-width="12" opacity=".35" fill="none"/>
  </g>

  <g opacity=".58">
    <path d="M0 1030 H1800" stroke="#94a3b8" stroke-width="4" opacity=".22"/>
    <path d="M260 1068 H500 M680 1068 H920 M1100 1068 H1340 M1510 1068 H1750" stroke="#e2e8f0" stroke-width="11" stroke-linecap="round" opacity=".28"/>
  </g>

  <g opacity=".38">
    <circle cx="120" cy="120" r="2" fill="#fff"/>
    <circle cx="365" cy="95" r="2" fill="#fff"/>
    <circle cx="860" cy="160" r="2" fill="#fff"/>
    <circle cx="1110" cy="105" r="2" fill="#fff"/>
    <circle cx="1710" cy="150" r="2" fill="#fff"/>
  </g>
</svg>
